<mxfile host="app.diagrams.net" modified="2021-08-30T09:23:54.843Z" agent="5.0 (Windows NT 10.0; Win64; x64) AppleWebKit/537.36 (KHTML, like Gecko) Chrome/92.0.4515.159 Safari/537.36" etag="bH59jSRGEtBB3uy5we0T" version="15.0.3" type="github">
  <diagram id="t5xvBoaTmmZxRE-rDOfT" name="Page-1">
    <mxGraphModel dx="1609" dy="1581" grid="1" gridSize="10" guides="1" tooltips="1" connect="1" arrows="1" fold="1" page="1" pageScale="1" pageWidth="827" pageHeight="1169" math="0" shadow="0">
      <root>
        <mxCell id="0" />
        <mxCell id="1" parent="0" />
        <mxCell id="93JEq6r9NOaDuIXSmWfF-27" value="azure" style="rounded=1;whiteSpace=wrap;html=1;dashed=1;fillColor=#d5e8d4;strokeColor=#82b366;align=right;" vertex="1" parent="1">
          <mxGeometry x="990" y="60" width="140" height="370" as="geometry" />
        </mxCell>
        <mxCell id="93JEq6r9NOaDuIXSmWfF-2" value="aws" style="rounded=1;whiteSpace=wrap;html=1;dashed=1;fillColor=#dae8fc;strokeColor=#6c8ebf;align=left;" vertex="1" parent="1">
          <mxGeometry x="-40" y="67.5" width="140" height="370" as="geometry" />
        </mxCell>
        <mxCell id="93JEq6r9NOaDuIXSmWfF-3" value="&lt;p&gt;&lt;span style=&quot;vertical-align: sub&quot;&gt;172.31.0.155&lt;/span&gt;&lt;br&gt;&lt;/p&gt;&lt;p&gt;&lt;span&gt;2C 4G&lt;/span&gt;&lt;/p&gt;&lt;p&gt;&lt;span&gt;8081&lt;/span&gt;&lt;/p&gt;" style="rounded=0;whiteSpace=wrap;html=1;align=center;fillColor=#e1d5e7;strokeColor=#9673a6;" vertex="1" parent="1">
          <mxGeometry x="240" y="490" width="110" height="80" as="geometry" />
        </mxCell>
        <mxCell id="93JEq6r9NOaDuIXSmWfF-4" value="172.31.22.70&lt;br&gt;&lt;br&gt;4C 15G&lt;br&gt;&lt;br&gt;8082" style="rounded=0;whiteSpace=wrap;html=1;fillColor=#e1d5e7;strokeColor=#9673a6;" vertex="1" parent="1">
          <mxGeometry x="370" y="490" width="120" height="80" as="geometry" />
        </mxCell>
        <mxCell id="93JEq6r9NOaDuIXSmWfF-16" value="" style="edgeStyle=orthogonalEdgeStyle;rounded=0;orthogonalLoop=1;jettySize=auto;html=1;curved=1;" edge="1" parent="1" source="93JEq6r9NOaDuIXSmWfF-7" target="93JEq6r9NOaDuIXSmWfF-10">
          <mxGeometry relative="1" as="geometry">
            <Array as="points">
              <mxPoint x="170" y="128" />
              <mxPoint x="170" y="253" />
            </Array>
          </mxGeometry>
        </mxCell>
        <mxCell id="93JEq6r9NOaDuIXSmWfF-30" value="586张表，15亿" style="edgeLabel;html=1;align=center;verticalAlign=middle;resizable=0;points=[];" vertex="1" connectable="0" parent="93JEq6r9NOaDuIXSmWfF-16">
          <mxGeometry x="-0.3509" y="-13" relative="1" as="geometry">
            <mxPoint as="offset" />
          </mxGeometry>
        </mxCell>
        <mxCell id="93JEq6r9NOaDuIXSmWfF-7" value="&lt;span&gt;MYSQL&lt;/span&gt;" style="shape=cylinder3;whiteSpace=wrap;html=1;boundedLbl=1;backgroundOutline=1;size=15;dashed=1;" vertex="1" parent="1">
          <mxGeometry x="10" y="87.5" width="60" height="80" as="geometry" />
        </mxCell>
        <mxCell id="93JEq6r9NOaDuIXSmWfF-17" style="edgeStyle=orthogonalEdgeStyle;curved=1;rounded=0;orthogonalLoop=1;jettySize=auto;html=1;" edge="1" parent="1" source="93JEq6r9NOaDuIXSmWfF-8" target="93JEq6r9NOaDuIXSmWfF-10">
          <mxGeometry relative="1" as="geometry" />
        </mxCell>
        <mxCell id="93JEq6r9NOaDuIXSmWfF-31" value="8个index,800万" style="edgeLabel;html=1;align=center;verticalAlign=middle;resizable=0;points=[];" vertex="1" connectable="0" parent="93JEq6r9NOaDuIXSmWfF-17">
          <mxGeometry x="-0.2716" relative="1" as="geometry">
            <mxPoint as="offset" />
          </mxGeometry>
        </mxCell>
        <mxCell id="93JEq6r9NOaDuIXSmWfF-8" value="&lt;span&gt;ES&lt;/span&gt;" style="shape=cylinder3;whiteSpace=wrap;html=1;boundedLbl=1;backgroundOutline=1;size=15;dashed=1;" vertex="1" parent="1">
          <mxGeometry x="10" y="210" width="60" height="80" as="geometry" />
        </mxCell>
        <mxCell id="93JEq6r9NOaDuIXSmWfF-18" style="edgeStyle=orthogonalEdgeStyle;curved=1;rounded=0;orthogonalLoop=1;jettySize=auto;html=1;entryX=0.5;entryY=0;entryDx=0;entryDy=0;" edge="1" parent="1" source="93JEq6r9NOaDuIXSmWfF-9" target="93JEq6r9NOaDuIXSmWfF-10">
          <mxGeometry relative="1" as="geometry">
            <Array as="points">
              <mxPoint x="170" y="378" />
              <mxPoint x="170" y="253" />
            </Array>
          </mxGeometry>
        </mxCell>
        <mxCell id="93JEq6r9NOaDuIXSmWfF-32" value="图片" style="edgeLabel;html=1;align=center;verticalAlign=middle;resizable=0;points=[];" vertex="1" connectable="0" parent="93JEq6r9NOaDuIXSmWfF-18">
          <mxGeometry x="-0.5517" y="8" relative="1" as="geometry">
            <mxPoint as="offset" />
          </mxGeometry>
        </mxCell>
        <mxCell id="93JEq6r9NOaDuIXSmWfF-9" value="&lt;span&gt;S3&lt;/span&gt;" style="shape=cylinder3;whiteSpace=wrap;html=1;boundedLbl=1;backgroundOutline=1;size=15;dashed=1;" vertex="1" parent="1">
          <mxGeometry x="10" y="337.5" width="60" height="80" as="geometry" />
        </mxCell>
        <mxCell id="93JEq6r9NOaDuIXSmWfF-25" value="HTTP&lt;br&gt;9091/9092" style="edgeStyle=orthogonalEdgeStyle;curved=1;rounded=0;orthogonalLoop=1;jettySize=auto;html=1;" edge="1" parent="1" source="93JEq6r9NOaDuIXSmWfF-10" target="93JEq6r9NOaDuIXSmWfF-23">
          <mxGeometry relative="1" as="geometry" />
        </mxCell>
        <mxCell id="93JEq6r9NOaDuIXSmWfF-10" value="&lt;blockquote style=&quot;margin: 0 0 0 40px ; border: none ; padding: 0px&quot;&gt;&lt;blockquote style=&quot;margin: 0 0 0 40px ; border: none ; padding: 0px&quot;&gt;&lt;p style=&quot;text-align: justify&quot;&gt;&lt;br&gt;&lt;/p&gt;&lt;/blockquote&gt;&lt;/blockquote&gt;" style="rounded=1;whiteSpace=wrap;html=1;dashed=1;shadow=0;noLabel=0;labelPadding=0;direction=north;align=center;" vertex="1" parent="1">
          <mxGeometry x="235" y="40" width="260" height="425" as="geometry" />
        </mxCell>
        <mxCell id="93JEq6r9NOaDuIXSmWfF-13" value="" style="edgeStyle=orthogonalEdgeStyle;rounded=0;orthogonalLoop=1;jettySize=auto;html=1;" edge="1" parent="1" source="93JEq6r9NOaDuIXSmWfF-11">
          <mxGeometry relative="1" as="geometry">
            <mxPoint x="365" y="200" as="targetPoint" />
          </mxGeometry>
        </mxCell>
        <mxCell id="93JEq6r9NOaDuIXSmWfF-11" value="&lt;pre style=&quot;background-color: rgb(255 , 255 , 255) ; font-family: &amp;#34;jetbrains mono&amp;#34; , monospace ; font-size: 13.5pt&quot;&gt;extract&lt;/pre&gt;" style="rounded=0;whiteSpace=wrap;html=1;shadow=0;dashed=1;" vertex="1" parent="1">
          <mxGeometry x="305" y="100" width="120" height="60" as="geometry" />
        </mxCell>
        <mxCell id="93JEq6r9NOaDuIXSmWfF-15" value="" style="edgeStyle=orthogonalEdgeStyle;rounded=0;orthogonalLoop=1;jettySize=auto;html=1;" edge="1" parent="1" target="93JEq6r9NOaDuIXSmWfF-14">
          <mxGeometry relative="1" as="geometry">
            <mxPoint x="365" y="260" as="sourcePoint" />
          </mxGeometry>
        </mxCell>
        <mxCell id="93JEq6r9NOaDuIXSmWfF-14" value="&lt;font style=&quot;font-size: 18px&quot;&gt;consumer&lt;/font&gt;" style="rounded=0;whiteSpace=wrap;html=1;shadow=0;dashed=1;" vertex="1" parent="1">
          <mxGeometry x="305" y="310" width="120" height="60" as="geometry" />
        </mxCell>
        <mxCell id="93JEq6r9NOaDuIXSmWfF-21" value="" style="edgeStyle=orthogonalEdgeStyle;curved=1;rounded=0;orthogonalLoop=1;jettySize=auto;html=1;" edge="1" parent="1" source="93JEq6r9NOaDuIXSmWfF-20" target="93JEq6r9NOaDuIXSmWfF-11">
          <mxGeometry relative="1" as="geometry" />
        </mxCell>
        <mxCell id="93JEq6r9NOaDuIXSmWfF-20" value="START" style="strokeWidth=2;html=1;shape=mxgraph.flowchart.start_1;whiteSpace=wrap;shadow=0;dashed=1;" vertex="1" parent="1">
          <mxGeometry x="314" y="-50" width="100" height="60" as="geometry" />
        </mxCell>
        <mxCell id="93JEq6r9NOaDuIXSmWfF-22" value="&lt;pre style=&quot;background-color: rgb(255 , 255 , 255) ; font-family: &amp;#34;jetbrains mono&amp;#34; , monospace ; font-size: 13.5pt&quot;&gt;Disruptor&lt;/pre&gt;" style="strokeWidth=2;html=1;shape=mxgraph.flowchart.direct_data;whiteSpace=wrap;shadow=0;dashed=1;" vertex="1" parent="1">
          <mxGeometry x="314" y="200" width="100" height="60" as="geometry" />
        </mxCell>
        <mxCell id="93JEq6r9NOaDuIXSmWfF-23" value="&lt;blockquote style=&quot;margin: 0 0 0 40px ; border: none ; padding: 0px&quot;&gt;&lt;blockquote style=&quot;margin: 0 0 0 40px ; border: none ; padding: 0px&quot;&gt;&lt;p style=&quot;text-align: justify&quot;&gt;&lt;br&gt;&lt;/p&gt;&lt;/blockquote&gt;&lt;/blockquote&gt;" style="rounded=1;whiteSpace=wrap;html=1;dashed=1;shadow=0;noLabel=0;labelPadding=0;direction=north;align=center;" vertex="1" parent="1">
          <mxGeometry x="620" y="40" width="260" height="425" as="geometry" />
        </mxCell>
        <mxCell id="93JEq6r9NOaDuIXSmWfF-33" style="edgeStyle=orthogonalEdgeStyle;curved=1;rounded=0;orthogonalLoop=1;jettySize=auto;html=1;" edge="1" parent="1" source="93JEq6r9NOaDuIXSmWfF-37" target="93JEq6r9NOaDuIXSmWfF-29">
          <mxGeometry relative="1" as="geometry" />
        </mxCell>
        <mxCell id="93JEq6r9NOaDuIXSmWfF-34" value="JDBC" style="edgeLabel;html=1;align=center;verticalAlign=middle;resizable=0;points=[];" vertex="1" connectable="0" parent="93JEq6r9NOaDuIXSmWfF-33">
          <mxGeometry x="0.3472" y="4" relative="1" as="geometry">
            <mxPoint as="offset" />
          </mxGeometry>
        </mxCell>
        <mxCell id="93JEq6r9NOaDuIXSmWfF-40" style="edgeStyle=orthogonalEdgeStyle;curved=1;rounded=0;orthogonalLoop=1;jettySize=auto;html=1;entryX=0;entryY=0.5;entryDx=0;entryDy=0;" edge="1" parent="1" source="93JEq6r9NOaDuIXSmWfF-24" target="93JEq6r9NOaDuIXSmWfF-37">
          <mxGeometry relative="1" as="geometry" />
        </mxCell>
        <mxCell id="93JEq6r9NOaDuIXSmWfF-41" value="" style="edgeStyle=orthogonalEdgeStyle;curved=1;rounded=0;orthogonalLoop=1;jettySize=auto;html=1;" edge="1" parent="1" source="93JEq6r9NOaDuIXSmWfF-24" target="93JEq6r9NOaDuIXSmWfF-38">
          <mxGeometry relative="1" as="geometry" />
        </mxCell>
        <mxCell id="93JEq6r9NOaDuIXSmWfF-42" style="edgeStyle=orthogonalEdgeStyle;curved=1;rounded=0;orthogonalLoop=1;jettySize=auto;html=1;entryX=0;entryY=0.5;entryDx=0;entryDy=0;" edge="1" parent="1" source="93JEq6r9NOaDuIXSmWfF-24" target="93JEq6r9NOaDuIXSmWfF-39">
          <mxGeometry relative="1" as="geometry" />
        </mxCell>
        <mxCell id="93JEq6r9NOaDuIXSmWfF-24" value="&lt;pre style=&quot;background-color: rgb(255 , 255 , 255) ; font-family: &amp;#34;jetbrains mono&amp;#34; , monospace ; font-size: 13.5pt&quot;&gt;&lt;pre style=&quot;font-family: &amp;#34;jetbrains mono&amp;#34; , monospace ; font-size: 13.5pt&quot;&gt;receive&lt;/pre&gt;&lt;/pre&gt;" style="rounded=0;whiteSpace=wrap;html=1;shadow=0;dashed=1;" vertex="1" parent="1">
          <mxGeometry x="630" y="230" width="80" height="40" as="geometry" />
        </mxCell>
        <mxCell id="93JEq6r9NOaDuIXSmWfF-26" value="ORCA-1&lt;br&gt;&lt;br&gt;4C 15G&lt;br&gt;&lt;br&gt;9091/9092" style="rounded=0;whiteSpace=wrap;html=1;fillColor=#e1d5e7;strokeColor=#9673a6;" vertex="1" parent="1">
          <mxGeometry x="690" y="490" width="120" height="80" as="geometry" />
        </mxCell>
        <mxCell id="93JEq6r9NOaDuIXSmWfF-29" value="MYSQL" style="shape=cylinder3;whiteSpace=wrap;html=1;boundedLbl=1;backgroundOutline=1;size=15;rounded=0;strokeColor=#666666;fillColor=#f5f5f5;fontColor=#333333;" vertex="1" parent="1">
          <mxGeometry x="1010" y="97.5" width="60" height="80" as="geometry" />
        </mxCell>
        <mxCell id="93JEq6r9NOaDuIXSmWfF-35" value="ES" style="shape=cylinder3;whiteSpace=wrap;html=1;boundedLbl=1;backgroundOutline=1;size=15;rounded=0;strokeColor=#666666;fillColor=#f5f5f5;fontColor=#333333;" vertex="1" parent="1">
          <mxGeometry x="1010" y="210" width="60" height="80" as="geometry" />
        </mxCell>
        <mxCell id="93JEq6r9NOaDuIXSmWfF-36" value="ES" style="shape=cylinder3;whiteSpace=wrap;html=1;boundedLbl=1;backgroundOutline=1;size=15;rounded=0;strokeColor=#666666;fillColor=#f5f5f5;fontColor=#333333;" vertex="1" parent="1">
          <mxGeometry x="1010" y="327.5" width="60" height="80" as="geometry" />
        </mxCell>
        <mxCell id="93JEq6r9NOaDuIXSmWfF-37" value="&lt;pre style=&quot;background-color: rgb(255 , 255 , 255) ; font-family: &amp;#34;jetbrains mono&amp;#34; , monospace&quot;&gt;&lt;pre style=&quot;font-family: &amp;#34;jetbrains mono&amp;#34; , monospace&quot;&gt;&lt;pre style=&quot;font-family: &amp;#34;jetbrains mono&amp;#34; , monospace&quot;&gt;&lt;font style=&quot;font-size: 8px&quot;&gt;Mysql&lt;/font&gt;&lt;/pre&gt;&lt;pre style=&quot;font-family: &amp;#34;jetbrains mono&amp;#34; , monospace&quot;&gt;&lt;font style=&quot;font-size: 8px&quot;&gt;DataSynServiceImpl&lt;/font&gt;&lt;/pre&gt;&lt;/pre&gt;&lt;/pre&gt;" style="rounded=0;whiteSpace=wrap;html=1;shadow=0;dashed=1;" vertex="1" parent="1">
          <mxGeometry x="750" y="107.5" width="120" height="60" as="geometry" />
        </mxCell>
        <mxCell id="93JEq6r9NOaDuIXSmWfF-43" value="" style="edgeStyle=orthogonalEdgeStyle;curved=1;rounded=0;orthogonalLoop=1;jettySize=auto;html=1;entryX=0;entryY=0.5;entryDx=0;entryDy=0;entryPerimeter=0;" edge="1" parent="1" source="93JEq6r9NOaDuIXSmWfF-38" target="93JEq6r9NOaDuIXSmWfF-35">
          <mxGeometry relative="1" as="geometry">
            <mxPoint x="1000" y="280" as="targetPoint" />
          </mxGeometry>
        </mxCell>
        <mxCell id="93JEq6r9NOaDuIXSmWfF-44" value="rest" style="edgeLabel;html=1;align=center;verticalAlign=middle;resizable=0;points=[];" vertex="1" connectable="0" parent="93JEq6r9NOaDuIXSmWfF-43">
          <mxGeometry x="0.1667" y="-2" relative="1" as="geometry">
            <mxPoint as="offset" />
          </mxGeometry>
        </mxCell>
        <mxCell id="93JEq6r9NOaDuIXSmWfF-38" value="&lt;pre style=&quot;background-color: rgb(255 , 255 , 255) ; font-family: &amp;#34;jetbrains mono&amp;#34; , monospace&quot;&gt;&lt;pre style=&quot;font-family: &amp;#34;jetbrains mono&amp;#34; , monospace&quot;&gt;&lt;pre style=&quot;font-family: &amp;#34;jetbrains mono&amp;#34; , monospace&quot;&gt;&lt;font style=&quot;font-size: 8px&quot;&gt;ElasticSearch&lt;/font&gt;&lt;/pre&gt;&lt;pre style=&quot;font-family: &amp;#34;jetbrains mono&amp;#34; , monospace&quot;&gt;&lt;font style=&quot;font-size: 8px&quot;&gt;DataSynServiceImpl&lt;/font&gt;&lt;/pre&gt;&lt;/pre&gt;&lt;/pre&gt;" style="rounded=0;whiteSpace=wrap;html=1;shadow=0;dashed=1;" vertex="1" parent="1">
          <mxGeometry x="750" y="220" width="120" height="60" as="geometry" />
        </mxCell>
        <mxCell id="93JEq6r9NOaDuIXSmWfF-45" style="edgeStyle=orthogonalEdgeStyle;curved=1;rounded=0;orthogonalLoop=1;jettySize=auto;html=1;" edge="1" parent="1" source="93JEq6r9NOaDuIXSmWfF-39" target="93JEq6r9NOaDuIXSmWfF-36">
          <mxGeometry relative="1" as="geometry" />
        </mxCell>
        <mxCell id="93JEq6r9NOaDuIXSmWfF-46" value="sdk" style="edgeLabel;html=1;align=center;verticalAlign=middle;resizable=0;points=[];" vertex="1" connectable="0" parent="93JEq6r9NOaDuIXSmWfF-45">
          <mxGeometry x="-0.2476" y="-2" relative="1" as="geometry">
            <mxPoint as="offset" />
          </mxGeometry>
        </mxCell>
        <mxCell id="93JEq6r9NOaDuIXSmWfF-39" value="&lt;pre style=&quot;background-color: rgb(255 , 255 , 255) ; font-family: &amp;#34;jetbrains mono&amp;#34; , monospace&quot;&gt;&lt;pre style=&quot;font-family: &amp;#34;jetbrains mono&amp;#34; , monospace&quot;&gt;&lt;pre style=&quot;font-family: &amp;#34;jetbrains mono&amp;#34; , monospace&quot;&gt;&lt;font style=&quot;font-size: 8px&quot;&gt;BlobData&lt;/font&gt;&lt;/pre&gt;&lt;pre style=&quot;font-family: &amp;#34;jetbrains mono&amp;#34; , monospace&quot;&gt;&lt;font style=&quot;font-size: 8px&quot;&gt;SynServiceImpl&lt;/font&gt;&lt;/pre&gt;&lt;/pre&gt;&lt;/pre&gt;" style="rounded=0;whiteSpace=wrap;html=1;shadow=0;dashed=1;" vertex="1" parent="1">
          <mxGeometry x="750" y="337.5" width="120" height="60" as="geometry" />
        </mxCell>
      </root>
    </mxGraphModel>
  </diagram>
</mxfile>
